<svg
   width="1em"
   height="1em"
   viewBox="0 0 343.46846 343.9513"
   xmlns="http://www.w3.org/2000/svg"
   role="image"
   aria-hidden="true"
   >
    <path
       fill="hsl(341, 36%, 50%)"
       d="m -583.15552,-264.63956 c -2.16954,0.004 -4.33868,0.13916 -6.5045,0.38775 -41.81745,1.61773 -83.17182,18.33672 -114.99939,50.16425 -66.98248,66.98251 -67.10001,176.153451 -0.19777,243.055667 31.79907,31.79907 73.14684,48.44507 114.97481,49.97846 4.35522,0.49176 8.72577,0.48624 13.08152,-0.0138 41.81691,-1.61817 83.16941,-18.33733 114.99696,-50.16485 66.9825,-66.982496 67.10304,-176.151607 0.20077,-243.053877 -31.80035,-31.80043 -73.15062,-48.44703 -114.98078,-49.97965 -2.18792,-0.24689 -4.37969,-0.37741 -6.57162,-0.37398 z m 0.0767,41.83899 c 1.62645,-0.001 3.25303,0.0364 4.87851,0.0959 17.46304,1.97837 34.59648,14.60232 47.98987,37.88343 29.31106,50.95003 29.27608,133.033671 -0.11563,184.12391732 -13.44016,23.36242968 -30.60878,36.04708968 -48.08817,38.07041968 -3.28071,0.12866 -6.56466,0.13308 -9.84512,0.0132 -17.46345,-1.9772 -34.59723,-14.60091 -47.99109,-37.88281968 -29.31104,-50.95001632 -29.27782,-133.03542732 0.11389,-184.12570732 13.43886,-23.36012 30.60613,-36.04445 48.08397,-38.06923 1.65758,-0.0651 3.31537,-0.10751 4.97383,-0.10913 z m 79.18481,26.94572 c 4.40663,3.4009 8.64957,7.12068 12.69432,11.16545 50.87727,50.87722 50.8171,132.843571 -0.20015,183.86078732 -4.00723,4.00722998 -8.20645,7.69887998 -12.56548,11.07735968 26.18935,-60.860336 26.23005,-145.315587 0.0713,-206.103597 z m -158.60278,0.28588 c -26.18936,60.86046 -26.22946,145.316951 -0.0707,206.105387 -4.40636,-3.4007197 -8.64918,-7.1202697 -12.69374,-11.16482968 -50.87723,-50.87722632 -50.81883,-132.84534732 0.19838,-183.86260732 4.00742,-4.00743 8.20676,-7.69936 12.56608,-11.07795 z" />
</svg>
